<?xml version="1.0" encoding="utf-8"?>
<svg width="135px" height="24px" viewBox="0 0 135 24" version="1.1" xmlns:xlink="http://www.w3.org/1999/xlink" xmlns="http://www.w3.org/2000/svg">
  <desc>Created with Lunacy</desc>
  <g id="Group-3">
    <g id="GYMPOINT" fill="#EE4D64" transform="translate(58 3)">
      <path d="M8.86963 13.4714Q9.19922 13.2114 9.38965 12.9844L9.38965 8.729L5.19287 8.729L5.19287 10.3477L7.19238 10.3477L7.19238 12.186Q7.10449 12.2739 6.96533 12.3655Q6.82617 12.457 6.61743 12.5339Q6.40869 12.6108 6.11572 12.6621Q5.82275 12.7134 5.42725 12.7134Q4.19678 12.7134 3.55957 11.8564Q2.92236 10.9995 2.92236 9.32227L2.92236 8.67773Q2.92236 7.00049 3.5083 6.14722Q4.09424 5.29395 5.22217 5.29395Q5.71289 5.29395 6.06812 5.41846Q6.42334 5.54297 6.66504 5.77368Q6.90674 6.00439 7.0459 6.33032Q7.18506 6.65625 7.25098 7.05908L9.38965 7.05908Q9.30176 6.28271 9.01611 5.63086Q8.73047 4.979 8.22144 4.51025Q7.7124 4.0415 6.95435 3.78149Q6.19629 3.52148 5.15625 3.52148Q4.14551 3.52149 3.31787 3.86572Q2.49023 4.20996 1.90796 4.86914Q1.32568 5.52832 1.00708 6.49146Q0.688477 7.45459 0.688477 8.69238L0.688477 9.32227Q0.688477 10.5601 1.02173 11.5195Q1.35498 12.479 1.96289 13.1382Q2.5708 13.7974 3.42407 14.1379Q4.27734 14.4785 5.31006 14.4785Q6.18896 14.4785 6.86646 14.3284Q7.54395 14.1782 8.04199 13.9548Q8.54004 13.7314 8.86963 13.4714ZM52.0166 9.2417Q52.0166 10.4648 51.687 11.4353Q51.3574 12.4058 50.7605 13.0796Q50.1636 13.7534 49.3286 14.116Q48.4937 14.4785 47.4902 14.4785Q46.4868 14.4785 45.6519 14.116Q44.8169 13.7534 44.2126 13.0796Q43.6084 12.4058 43.2715 11.4353Q42.9346 10.4648 42.9346 9.2417L42.9346 8.77295Q42.9346 7.55713 43.2678 6.58301Q43.6011 5.60889 44.2017 4.92773Q44.8022 4.24658 45.6372 3.88403Q46.4722 3.52148 47.4756 3.52148Q48.479 3.52148 49.314 3.88403Q50.1489 4.24658 50.7495 4.92773Q51.3501 5.60889 51.6833 6.58301Q52.0166 7.55713 52.0166 8.77295L52.0166 9.2417ZM17.0654 3.66797L14.8462 8.47266L12.6416 3.66797L10.2319 3.66797L13.7329 10.4648L13.7329 14.332L15.9668 14.332L15.9668 10.4648L19.4678 3.66797L17.0654 3.66797ZM23.313 3.66797L26.0522 11.4023L28.7769 3.66797L31.6626 3.66797L31.6626 14.332L29.458 14.332L29.458 11.417L29.6777 6.38525L26.7993 14.332L25.2905 14.332L22.4194 6.39258L22.6392 11.417L22.6392 14.332L20.4419 14.332L20.4419 3.66797L23.313 3.66797ZM35.7788 14.332L35.7788 10.5747L37.7417 10.5747Q38.6865 10.5747 39.4299 10.3367Q40.1733 10.0986 40.6897 9.65918Q41.2061 9.21973 41.4771 8.59717Q41.748 7.97461 41.748 7.19824Q41.748 6.43652 41.4771 5.78833Q41.2061 5.14014 40.6897 4.66772Q40.1733 4.19531 39.4299 3.93164Q38.6865 3.66797 37.7417 3.66797L33.5815 3.66797L33.5815 14.332L35.7788 14.332ZM53.7524 14.332L55.9497 14.332L55.9497 3.66797L53.7524 3.66797L53.7524 14.332ZM66.6577 14.332L64.4604 14.332L60.1831 7.31543L60.1831 14.332L57.9858 14.332L57.9858 3.66797L60.1831 3.66797L64.4678 10.6992L64.4678 3.66797L66.6577 3.66797L66.6577 14.332ZM73.3374 5.44775L76.604 5.44775L76.604 3.66797L67.9175 3.66797L67.9175 5.44775L71.1401 5.44775L71.1401 14.332L73.3374 14.332L73.3374 5.44775ZM49.79 8.7583Q49.79 7.08106 49.1895 6.20947Q48.5889 5.33789 47.4756 5.33789Q46.3623 5.33789 45.7617 6.20947Q45.1611 7.08106 45.1611 8.7583L45.1611 9.2417Q45.1611 10.0767 45.3186 10.7175Q45.4761 11.3584 45.7727 11.7942Q46.0693 12.23 46.5015 12.4534Q46.9336 12.6768 47.4902 12.6768Q48.6035 12.6768 49.1968 11.7979Q49.79 10.9189 49.79 9.2417L49.79 8.7583ZM37.7417 8.79492L35.7788 8.79492L35.7788 5.44775L37.7417 5.44775Q38.2104 5.44775 38.551 5.59424Q38.8916 5.74072 39.1077 5.98608Q39.3237 6.23145 39.4263 6.55005Q39.5288 6.86865 39.5288 7.21289Q39.5288 7.55713 39.4263 7.8501Q39.3237 8.14307 39.1077 8.35181Q38.8916 8.56055 38.551 8.67773Q38.2104 8.79492 37.7417 8.79492Z" />
    </g>
    <g id="Group-2">
      <g id="noun_Gym_1617325" transform="translate(0.05801079 0)">
        <g id="Group" transform="translate(0.2370945 0)">
          <path d="M24.6332 5.33261C24.1378 5.33261 23.6684 5.44586 23.2494 5.64775C23.145 3.97766 21.7539 2.65082 20.058 2.65082C19.5616 2.65082 19.0914 2.76443 18.6719 2.96705C18.5528 1.31117 17.1684 0 15.4827 0C13.7191 0 12.2843 1.4348 12.2843 3.19845L12.2843 8.50016C12.2843 9.00316 12.6921 9.41095 13.1951 9.41095C13.6981 9.41095 14.1059 9.00316 14.1059 8.50016L14.1059 3.19845C14.1059 2.43922 14.7235 1.82158 15.4827 1.82158C16.2419 1.82158 16.8596 2.43922 16.8596 3.19845L16.8596 20.4378C16.8596 21.197 16.2419 21.8146 15.4827 21.8146C14.7235 21.8146 14.1059 21.197 14.1059 20.4378L14.1059 15.1361C14.1059 14.6331 13.6981 14.2253 13.1951 14.2253L0.91079 14.2253C0.407791 14.2253 0 14.6331 0 15.1361C0 15.6391 0.407791 16.0468 0.91079 16.0468L12.2843 16.0468L12.2843 20.4378C12.2843 22.2014 13.7191 23.6362 15.4827 23.6362C17.1685 23.6362 18.5529 22.325 18.6719 20.6692C19.0914 20.8718 19.5616 20.9854 20.058 20.9854C21.7539 20.9854 23.145 19.6584 23.2494 17.9885C23.6684 18.1904 24.1378 18.3036 24.6332 18.3036C26.3968 18.3036 27.8317 16.8688 27.8317 15.1052L27.8317 8.53094C27.8317 6.76735 26.3968 5.33261 24.6332 5.33261ZM21.4349 17.7869C21.4349 18.5462 20.8173 19.1638 20.058 19.1638C19.2988 19.1638 18.6812 18.5462 18.6812 17.7869L18.6812 5.84928C18.6812 5.09004 19.2988 4.4724 20.058 4.4724C20.8173 4.4724 21.4349 5.09004 21.4349 5.84928L21.4349 17.7869ZM24.6332 16.482C25.3924 16.482 26.0101 15.8644 26.0101 15.1052L26.0101 8.53094C26.0101 7.77183 25.3924 7.15419 24.6332 7.15419C23.8741 7.15419 23.2564 7.77183 23.2564 8.53094L23.2564 15.1052C23.2564 15.8644 23.8741 16.482 24.6332 16.482Z" transform="translate(17.31758 0.02216256)" id="Shape" fill="#EE4D64" fill-rule="evenodd" stroke="none" />
          <path d="M14.6367 14.2253C14.1337 14.2253 13.7259 14.6331 13.7259 15.1361L13.7259 20.4378C13.7259 21.197 13.1083 21.8146 12.349 21.8146C11.5898 21.8146 10.9722 21.197 10.9722 20.4378L10.9722 3.19845C10.9722 2.43922 11.5898 1.82158 12.349 1.82158C13.1083 1.82158 13.7259 2.43922 13.7259 3.19845L13.7259 8.50016C13.7259 9.00316 14.1337 9.41095 14.6367 9.41095L26.9211 9.41095C27.4241 9.41095 27.8319 9.00316 27.8319 8.50016C27.8319 7.99716 27.4241 7.58937 26.9211 7.58937L15.5475 7.58937L15.5475 3.19845C15.5475 1.4348 14.1127 0 12.349 0C10.6633 0 9.27895 1.31117 9.15988 2.96705C8.7403 2.76443 8.27003 2.65082 7.77371 2.65082C6.07782 2.65082 4.68668 3.97778 4.58224 5.64775C4.16328 5.44586 3.69386 5.33261 3.19845 5.33261C1.4348 5.33261 0 6.76741 0 8.53107L0 15.1052C0 16.8688 1.4348 18.3035 3.19845 18.3035C3.69386 18.3035 4.16328 18.1903 4.58224 17.9884C4.68668 19.6585 6.07782 20.9853 7.77371 20.9853C8.27003 20.9853 8.74024 20.8717 9.15988 20.6691C9.27895 22.325 10.6633 23.6362 12.349 23.6362C14.1127 23.6362 15.5475 22.2014 15.5475 20.4377L15.5475 15.136C15.5475 14.633 15.1398 14.2253 14.6367 14.2253ZM6.3969 17.7869C6.3969 18.5462 7.0146 19.1638 7.77377 19.1638C8.53301 19.1638 9.15065 18.5462 9.15065 17.7869L9.15065 5.84928C9.15065 5.09004 8.53301 4.4724 7.77377 4.4724C7.01454 4.4724 6.3969 5.09004 6.3969 5.84928L6.3969 17.7869ZM3.19857 16.482C2.4394 16.482 1.8217 15.8644 1.8217 15.1053L1.8217 8.53107C1.8217 7.77183 2.43934 7.15419 3.19857 7.15419C3.95775 7.15419 4.57538 7.77183 4.57538 8.53107L4.57538 15.1052C4.57532 15.8644 3.95769 16.482 3.19857 16.482Z" transform="translate(0.02580572 0.02216256)" id="Shape" fill="#EE4D64" fill-rule="evenodd" stroke="none" />
          <path d="M0 0.91079L0 1.21615C0 1.71915 0.407791 2.12694 0.91079 2.12694C1.41379 2.12694 1.82158 1.71915 1.82158 1.21615L1.82158 0.91079C1.82158 0.407791 1.41379 0 0.91079 0C0.407791 0 0 0.407791 0 0.91079Z" transform="translate(13.7491 10.98267)" id="Path" fill="#EE4D64" stroke="none" />
          <path d="M1.82158 1.21615L1.82158 0.91079C1.82158 0.407791 1.41373 0 0.91079 0C0.407731 0 0 0.407791 0 0.91079L0 1.21615C0 1.71915 0.407731 2.12694 0.91079 2.12694C1.41379 2.12694 1.82158 1.71915 1.82158 1.21615Z" transform="translate(29.60195 10.57603)" id="Path" fill="#EE4D64" stroke="none" />
        </g>
      </g>
    </g>
  </g>
</svg>