<?xml version="1.0" encoding="utf-8"?>
<svg width="154px" height="101px" viewBox="0 0 154 101" version="1.1" xmlns:xlink="http://www.w3.org/1999/xlink" xmlns="http://www.w3.org/2000/svg">
  <desc>Created with Lunacy</desc>
  <g id="Group-2">
    <g id="GYMPOINT" fill="#EE4D64" transform="translate(0 64.69818)">
      <path d="M17.6569 26.9009Q18.313 26.3833 18.6921 25.9313L18.6921 17.4601L10.3375 17.4601L10.3375 20.6823L14.318 20.6823L14.318 24.342Q14.143 24.517 13.866 24.6992Q13.5889 24.8815 13.1734 25.0346Q12.7579 25.1877 12.1746 25.2897Q11.5914 25.3918 10.8041 25.3918Q8.35458 25.3918 7.08608 23.6859Q5.81759 21.98 5.81759 18.6411L5.81759 17.358Q5.81759 14.0191 6.98402 12.3205Q8.15045 10.6218 10.3958 10.6218Q11.3727 10.6218 12.0799 10.8697Q12.787 11.1176 13.2682 11.5769Q13.7493 12.0361 14.0264 12.685Q14.3034 13.3338 14.4346 14.1357L18.6921 14.1357Q18.5171 12.5902 17.9485 11.2925Q17.3799 9.99488 16.3665 9.06174Q15.3532 8.12859 13.8441 7.61098Q12.335 7.09338 10.2646 7.09338Q8.25252 7.09338 6.60493 7.77866Q4.95734 8.46394 3.7982 9.77618Q2.63906 11.0884 2.00481 13.0057Q1.37056 14.9231 1.37056 17.3872L1.37056 18.6411Q1.37056 21.1052 2.03397 23.0152Q2.69738 24.9252 3.90755 26.2375Q5.11773 27.5497 6.81634 28.2277Q8.51496 28.9057 10.5708 28.9057Q12.3205 28.9057 13.6691 28.6068Q15.0178 28.3079 16.0093 27.8632Q17.0008 27.4185 17.6569 26.9009ZM103.55 18.4807Q103.55 20.9156 102.894 22.8475Q102.238 24.7794 101.05 26.1208Q99.8613 27.4622 98.1991 28.184Q96.5369 28.9057 94.5394 28.9057Q92.5419 28.9057 90.8797 28.184Q89.2176 27.4622 88.0147 26.1208Q86.8118 24.7794 86.1411 22.8475Q85.4704 20.9156 85.4704 18.4807L85.4704 17.5475Q85.4704 15.1272 86.1338 13.188Q86.7972 11.2488 87.9928 9.89282Q89.1884 8.53684 90.8506 7.81511Q92.5127 7.09338 94.5103 7.09338Q96.5078 7.09338 98.17 7.81511Q99.8321 8.53684 101.028 9.89282Q102.223 11.2488 102.887 13.188Q103.55 15.1272 103.55 17.5475L103.55 18.4807ZM33.9724 7.38499L29.5545 16.9497L25.1658 7.38499L20.3688 7.38499L27.3383 20.9156L27.3383 28.6141L31.7853 28.6141L31.7853 20.9156L38.7547 7.38499L33.9724 7.38499ZM46.4095 7.38499L51.8625 22.7819L57.2865 7.38499L63.0311 7.38499L63.0311 28.6141L58.6424 28.6141L58.6424 22.8111L59.0798 12.7943L53.3497 28.6141L50.3462 28.6141L44.6307 12.8089L45.0681 22.8111L45.0681 28.6141L40.6939 28.6141L40.6939 7.38499L46.4095 7.38499ZM71.2253 28.6141L71.2253 21.1343L75.1329 21.1343Q77.0138 21.1343 78.4937 20.6605Q79.9736 20.1866 81.0015 19.3118Q82.0294 18.4369 82.5689 17.1976Q83.1084 15.9583 83.1084 14.4127Q83.1084 12.8964 82.5689 11.606Q82.0294 10.3157 81.0015 9.37522Q79.9736 8.43478 78.4937 7.90988Q77.0138 7.38499 75.1329 7.38499L66.8512 7.38499L66.8512 28.6141L71.2253 28.6141ZM107.006 28.6141L111.38 28.6141L111.38 7.38499L107.006 7.38499L107.006 28.6141ZM132.696 28.6141L128.322 28.6141L119.807 14.646L119.807 28.6141L115.433 28.6141L115.433 7.38499L119.807 7.38499L128.337 21.3822L128.337 7.38499L132.696 7.38499L132.696 28.6141ZM145.994 10.928L152.497 10.928L152.497 7.38499L135.204 7.38499L135.204 10.928L141.62 10.928L141.62 28.6141L145.994 28.6141L145.994 10.928ZM99.1177 17.5184Q99.1177 14.1795 97.9221 12.4444Q96.7265 10.7093 94.5103 10.7093Q92.294 10.7093 91.0984 12.4444Q89.9029 14.1795 89.9029 17.5184L89.9029 18.4807Q89.9029 20.1429 90.2163 21.4186Q90.5298 22.6944 91.1203 23.562Q91.7108 24.4295 92.5711 24.8742Q93.4313 25.3189 94.5394 25.3189Q96.7556 25.3189 97.9367 23.5693Q99.1177 21.8196 99.1177 18.4807L99.1177 17.5184ZM75.1329 17.5913L71.2253 17.5913L71.2253 10.928L75.1329 10.928Q76.066 10.928 76.744 11.2196Q77.422 11.5112 77.8521 11.9997Q78.2823 12.4881 78.4864 13.1224Q78.6905 13.7566 78.6905 14.4419Q78.6905 15.1272 78.4864 15.7104Q78.2823 16.2936 77.8521 16.7092Q77.422 17.1247 76.744 17.358Q76.066 17.5913 75.1329 17.5913Z" />
    </g>
    <g id="noun_Gym_1617325" transform="translate(26.12811 0)">
      <g id="Group" transform="translate(0.5235838 0)">
        <path d="M54.3984 11.7762C53.3043 11.7762 52.2677 12.0263 51.3425 12.4721C51.1119 8.78401 48.0398 5.8539 44.2947 5.8539C43.1986 5.8539 42.1602 6.10478 41.2337 6.55224C40.9707 2.89551 37.9135 0 34.191 0C30.2964 0 27.1279 3.16851 27.1279 7.06325L27.1279 18.7712C27.1279 19.882 28.0284 20.7825 29.1392 20.7825C30.25 20.7825 31.1505 19.882 31.1505 18.7712L31.1505 7.06325C31.1505 5.3866 32.5145 4.02266 34.191 4.02266C35.8676 4.02266 37.2316 5.3866 37.2316 7.06325L37.2316 45.1334C37.2316 46.81 35.8676 48.174 34.191 48.174C32.5145 48.174 31.1505 46.81 31.1505 45.1334L31.1505 33.4255C31.1505 32.3147 30.25 31.4141 29.1392 31.4141L2.01133 31.4141C0.900539 31.4141 0 32.3147 0 33.4255C0 34.5362 0.900539 35.4368 2.01133 35.4368L27.1279 35.4368L27.1279 45.1334C27.1279 49.0281 30.2964 52.1966 34.191 52.1966C37.9137 52.1966 40.9709 49.3011 41.2337 45.6444C42.1602 46.0919 43.1986 46.3427 44.2947 46.3427C48.0398 46.3427 51.1119 43.4124 51.3425 39.7245C52.2677 40.1704 53.3043 40.4204 54.3984 40.4204C58.293 40.4204 61.4616 37.2519 61.4616 33.3573L61.4616 18.8392C61.4616 14.9446 58.293 11.7762 54.3984 11.7762ZM47.3354 39.2795C47.3354 40.9561 45.9714 42.3201 44.2948 42.3201C42.6182 42.3201 41.2542 40.9561 41.2542 39.2795L41.2542 12.9172C41.2542 11.2405 42.6182 9.87656 44.2948 9.87656C45.9714 9.87656 47.3354 11.2405 47.3354 12.9172L47.3354 39.2795ZM54.3984 36.3978C56.0749 36.3978 57.439 35.0338 57.439 33.3573L57.439 18.8392C57.439 17.1628 56.0749 15.7988 54.3984 15.7988C52.7219 15.7988 51.3579 17.1628 51.3579 18.8392L51.3579 33.3573C51.3579 35.0338 52.7219 36.3978 54.3984 36.3978Z" transform="translate(38.24298 0.04894231)" id="Shape" fill="#EE4D64" fill-rule="evenodd" stroke="none" />
        <path d="M32.3227 31.4141C31.2119 31.4141 30.3114 32.3147 30.3114 33.4255L30.3114 45.1334C30.3114 46.81 28.9474 48.174 27.2708 48.174C25.5941 48.174 24.2302 46.81 24.2302 45.1334L24.2302 7.06325C24.2302 5.3866 25.5941 4.02266 27.2708 4.02266C28.9474 4.02266 30.3114 5.3866 30.3114 7.06325L30.3114 18.7712C30.3114 19.882 31.2119 20.7825 32.3227 20.7825L59.4507 20.7825C60.5615 20.7825 61.462 19.882 61.462 18.7712C61.462 17.6604 60.5615 16.7599 59.4507 16.7599L34.334 16.7599L34.334 7.06325C34.334 3.16851 31.1655 0 27.2708 0C23.5481 0 20.491 2.89551 20.2281 6.55224C19.3015 6.10478 18.263 5.8539 17.167 5.8539C13.4219 5.8539 10.3498 8.78427 10.1191 12.4721C9.19391 12.0263 8.15728 11.7762 7.06325 11.7762C3.16851 11.7762 0 14.9447 0 18.8394L0 33.3573C0 37.2519 3.16851 40.4203 7.06325 40.4203C8.15728 40.4203 9.19391 40.1702 10.1191 39.7244C10.3498 43.4125 13.4219 46.3426 17.167 46.3426C18.263 46.3426 19.3014 46.0917 20.2281 45.6443C20.491 49.301 23.5481 52.1965 27.2708 52.1965C31.1655 52.1965 34.334 49.028 34.334 45.1333L34.334 33.4253C34.334 32.3145 33.4336 31.4141 32.3227 31.4141ZM14.1265 39.2795C14.1265 40.9561 15.4906 42.3201 17.1671 42.3201C18.8437 42.3201 20.2077 40.9561 20.2077 39.2795L20.2077 12.9172C20.2077 11.2405 18.8437 9.87656 17.1671 9.87656C15.4904 9.87656 14.1265 11.2405 14.1265 12.9172L14.1265 39.2795ZM7.06352 36.3978C5.38701 36.3978 4.02292 35.0338 4.02292 33.3575L4.02292 18.8394C4.02292 17.1628 5.38687 15.7988 7.06352 15.7988C8.74002 15.7988 10.104 17.1628 10.104 18.8394L10.104 33.3573C10.1038 35.0338 8.73989 36.3978 7.06352 36.3978Z" transform="translate(0.05698762 0.04894231)" id="Shape" fill="#EE4D64" fill-rule="evenodd" stroke="none" />
        <path d="M0 2.01133L0 2.68566C0 3.79645 0.900539 4.69699 2.01133 4.69699C3.12212 4.69699 4.02266 3.79645 4.02266 2.68566L4.02266 2.01133C4.02266 0.900539 3.12212 0 2.01133 0C0.900539 0 0 0.900539 0 2.01133Z" transform="translate(30.3626 24.2534)" id="Path" fill="#EE4D64" stroke="none" />
        <path d="M4.02266 2.68566L4.02266 2.01133C4.02266 0.900539 3.12199 0 2.01133 0C0.900405 0 0 0.900539 0 2.01133L0 2.68566C0 3.79645 0.900405 4.69699 2.01133 4.69699C3.12212 4.69699 4.02266 3.79645 4.02266 2.68566Z" transform="translate(65.37097 23.35541)" id="Path" fill="#EE4D64" stroke="none" />
      </g>
    </g>
  </g>
</svg>